/vscmnt/brussel_pixiu_data/_data_brussel/112/vsc11236/PredSimResults/SUBJ09mtu3D/SUBJ09mtu3D_12829608.mot
version=1
nRows=7
nColumns=50
inDegrees=yes
endheader
                time	         pelvis_tilt	         pelvis_list	     pelvis_rotation	           pelvis_tx	           pelvis_ty	           pelvis_tz	       hip_flexion_r	     hip_adduction_r	      hip_rotation_r	        knee_angle_r	       ankle_angle_r	         mtp_angle_r	       hip_flexion_l	     hip_adduction_l	      hip_rotation_l	        knee_angle_l	       ankle_angle_l	         mtp_angle_l	    lumbar_extension	      lumbar_bending	     lumbar_rotation	 ercspn_r/activation	 intobl_r/activation	 extobl_r/activation	    abd_r/activation	    add_r/activation	hamstrings_r/activation	bifemsh_r/activation	glut_max_r/activation	iliopsoas_r/activation	rect_fem_r/activation	  vasti_r/activation	gastroc_r/activation	 soleus_r/activation	tib_ant_r/activation	 ercspn_l/activation	 intobl_l/activation	 extobl_l/activation	    abd_l/activation	    add_l/activation	hamstrings_l/activation	bifemsh_l/activation	glut_max_l/activation	iliopsoas_l/activation	rect_fem_l/activation	  vasti_l/activation	gastroc_l/activation	 soleus_l/activation	tib_ant_l/activation	
          0.00000000	         -7.33621065	         -4.57222850	          7.06344837	          0.00000000	          0.97953722	         -0.01082625	         31.15504563	          1.86894896	         -4.82525033	         -3.00375380	          6.45095746	          0.22893957	        -11.76535250	         -4.86965234	          3.89470331	         -8.08951706	          9.71099109	         29.49008442	         -0.94094319	          3.46919280	         -4.02001506	          0.08343173	          0.11673609	          0.02851785	          0.01599480	          0.10028428	          0.11445337	          0.22340733	          0.05823454	          0.10569307	          0.01000017	          0.01000001	          0.02696506	          0.01456573	          0.27212963	          0.07918227	          0.01000001	          0.01000002	          0.04386032	          0.01796772	          0.01636426	          0.11564346	          0.03090284	          0.45623657	          0.01664572	          0.01932443	          0.29118782	          0.25959963	          0.01456572	
          0.01241319	         -7.40462966	         -4.53305333	          7.03684659	          0.01872173	          0.97776014	         -0.01067967	         31.02508073	          1.97099741	         -4.69690192	         -4.55705912	          6.04776184	          0.19911160	        -11.75067014	         -4.84182902	          3.52143857	         -9.97278275	          8.82489734	         31.63105721	         -0.63252026	          3.81694733	         -4.15125963	          0.06912973	          0.09672502	          0.02362927	          0.06328537	          0.08309338	          0.10049990	          0.18511059	          0.10779800	          0.08757498	          0.01000002	          0.01000000	          0.02234267	          0.01206887	          0.31635329	          0.08256466	          0.01000000	          0.01000004	          0.03634171	          0.01771748	          0.01598315	          0.09581967	          0.02560543	          0.42864192	          0.01379234	          0.02016017	          0.24441111	          0.22703952	          0.01206884	
          0.02482639	         -7.45552316	         -4.49706183	          6.96305295	          0.03759825	          0.97639345	         -0.01043962	         30.73585326	          2.08644771	         -4.57333842	         -5.82979266	          5.44710904	          0.19109212	        -11.52910683	         -4.81006511	          3.12854938	        -12.25306531	          7.75361506	         33.73926982	         -0.32738402	          4.17539650	         -4.24839616	          0.06814283	          0.08014426	          0.01957870	          0.11906593	          0.08534684	          0.08327211	          0.15337865	          0.15421644	          0.07256273	          0.01000002	          0.01000000	          0.01851266	          0.01000001	          0.35759104	          0.10675633	          0.01000000	          0.01000002	          0.03011195	          0.01519110	          0.01905352	          0.07939411	          0.02121610	          0.40145915	          0.01206852	          0.01670429	          0.20251374	          0.18812002	          0.00999999	
          0.03723958	         -7.48898130	         -4.46097778	          6.84684431	          0.05630970	          0.97564007	         -0.01010935	         30.40335195	          2.22157023	         -4.44534566	         -7.03411336	          4.85128318	          0.15946820	        -10.99876423	         -4.76928841	          2.72778122	        -15.06719935	          6.48969125	         35.66418168	         -0.05845274	          4.54050173	         -4.31102260	          0.06960664	          0.06640579	          0.01622249	          0.16036468	          0.11157243	          0.06899748	          0.12708623	          0.18895826	          0.06012390	          0.01000003	          0.01775561	          0.01533920	          0.01000010	          0.38757238	          0.14730846	          0.01000000	          0.01000003	          0.02495011	          0.03165491	          0.01578740	          0.06578425	          0.01757920	          0.36801863	          0.01000007	          0.01384082	          0.16779849	          0.15587216	          0.01000000	
          0.04965278	         -7.50332659	         -4.42116791	          6.69013149	          0.07469616	          0.97559515	         -0.00970070	         30.06791171	          2.36976940	         -4.30767111	         -8.28417666	          4.51079414	          0.13398177	        -10.11141721	         -4.71858243	          2.32365048	        -18.47281310	          5.06100600	         37.09875366	          0.16153644	          4.90667312	         -4.33760791	          0.07133349	          0.05502240	          0.01344161	          0.17587033	          0.10775542	          0.05717098	          0.10530091	          0.19941823	          0.04981736	          0.01000005	          0.06271080	          0.01270975	          0.01000009	          0.39940228	          0.16711946	          0.01000001	          0.01000003	          0.02067312	          0.05077803	          0.01308115	          0.05450745	          0.01456575	          0.30806753	          0.01000003	          0.01146820	          0.13903419	          0.12915229	          0.01000000	
          0.06206597	         -7.49951582	         -4.36207469	          6.49427130	          0.09270522	          0.97630896	         -0.00924881	         29.67107615	          2.51449257	         -4.16065485	         -9.45105213	          4.33657252	          0.11105801	         -8.86991890	         -4.64799752	          1.90934639	        -22.44293635	          3.53256353	         37.59939902	          0.33191241	          5.25670763	         -4.32690915	          0.05910540	          0.04559037	          0.01113743	          0.17555237	          0.08928381	          0.05081054	          0.08725007	          0.19251284	          0.04127759	          0.01000003	          0.12627543	          0.01053109	          0.01000029	          0.39846454	          0.18035085	          0.01000000	          0.01000003	          0.01712930	          0.06278291	          0.01083881	          0.04796707	          0.01206886	          0.25525807	          0.01000001	          0.00999999	          0.11520071	          0.10701278	          0.01000000	
          0.07447916	         -7.48070707	         -4.27174693	          6.25812945	          0.11031697	          0.97781325	         -0.00878895	         29.13453821	          2.64600880	         -3.99082192	        -10.38794994	          4.32271365	          0.09343542	         -7.30806613	         -4.55109939	          1.49178539	        -26.85394221	          1.78168595	         37.09005608	          0.45507680	          5.57798120	         -4.27668642	          0.04897346	          0.03777519	          0.01000001	          0.16932666	          0.07397864	          0.04641343	          0.07229353	          0.17705009	          0.03420171	          0.01000003	          0.16797861	          0.01000012	          0.01000011	          0.38791755	          0.17921806	          0.01000000	          0.01000003	          0.01419296	          0.08010101	          0.01000006	          0.06848056	          0.01000000	          0.21150129	          0.01000001	          0.00999999	          0.09545281	          0.08866847	          0.02714385	
